<svg width="78" height="78" viewBox="0 0 78 78" fill="none" xmlns="http://www.w3.org/2000/svg">
<g filter="url(#filter0_d_1_15)">
<rect x="4" width="70" height="70" rx="16" fill="#D2F1E1"/>
<path opacity="0.8" d="M52.755 20.09C51.6798 19.9048 50.591 19.8095 49.5 19.805C45.7775 19.8019 42.1327 20.8694 39 22.88C35.8592 20.8958 32.215 19.8545 28.5 19.88C27.409 19.8845 26.3202 19.9798 25.245 20.165C24.8928 20.2257 24.5739 20.4102 24.3456 20.6852C24.1174 20.9602 23.9948 21.3077 24 21.665V39.665C23.9968 39.8854 24.0422 40.1038 24.133 40.3047C24.2238 40.5055 24.3577 40.6839 24.5253 40.8271C24.6928 40.9703 24.8899 41.0749 25.1024 41.1333C25.315 41.1917 25.5378 41.2025 25.755 41.165C27.9045 40.7928 30.1068 40.8546 32.2321 41.3466C34.3574 41.8386 36.3627 42.751 38.13 44.03L38.31 44.135H38.475C38.6413 44.2043 38.8198 44.24 39 44.24C39.1802 44.24 39.3586 44.2043 39.525 44.135H39.69L39.87 44.03C41.6249 42.7224 43.6245 41.7805 45.7502 41.26C47.8759 40.7395 50.0845 40.6511 52.245 41C52.4622 41.0375 52.685 41.0267 52.8976 40.9683C53.1101 40.9099 53.3072 40.8053 53.4747 40.6621C53.6423 40.5189 53.7762 40.3405 53.867 40.1397C53.9578 39.9388 54.0032 39.7204 54 39.5V21.5C53.9844 21.1582 53.8524 20.8321 53.626 20.5756C53.3995 20.3191 53.0922 20.1478 52.755 20.09ZM37.5 40.025C34.7248 38.565 31.6358 37.8031 28.5 37.805C28.005 37.805 27.51 37.805 27 37.805V22.805C27.4996 22.7762 28.0004 22.7762 28.5 22.805C31.7001 22.8015 34.8303 23.7405 37.5 25.505V40.025ZM51 37.865C50.49 37.865 49.995 37.865 49.5 37.865C46.3642 37.8631 43.2752 38.625 40.5 40.085V25.505C43.1697 23.7405 46.2999 22.8015 49.5 22.805C49.9996 22.7762 50.5004 22.7762 51 22.805V37.865ZM52.755 44.09C51.6798 43.9048 50.591 43.8095 49.5 43.805C45.7775 43.8019 42.1327 44.8694 39 46.88C35.8673 44.8694 32.2224 43.8019 28.5 43.805C27.409 43.8095 26.3202 43.9048 25.245 44.09C25.0497 44.121 24.8625 44.1903 24.6941 44.2939C24.5257 44.3974 24.3795 44.5333 24.2638 44.6936C24.1481 44.8539 24.0652 45.0355 24.0199 45.228C23.9747 45.4204 23.9679 45.6199 24 45.815C24.0762 46.2045 24.3037 46.548 24.6327 46.7701C24.9616 46.9922 25.3652 47.0749 25.755 47C27.9045 46.6278 30.1068 46.6896 32.2321 47.1816C34.3574 47.6737 36.3627 48.586 38.13 49.865C38.384 50.0459 38.6881 50.1431 39 50.1431C39.3118 50.1431 39.6159 50.0459 39.87 49.865C41.6373 48.586 43.6426 47.6737 45.7679 47.1816C47.8932 46.6896 50.0955 46.6278 52.245 47C52.6348 47.0749 53.0384 46.9922 53.3673 46.7701C53.6963 46.548 53.9238 46.2045 54 45.815C54.0321 45.6199 54.0253 45.4204 53.98 45.228C53.9348 45.0355 53.8519 44.8539 53.7362 44.6936C53.6205 44.5333 53.4742 44.3974 53.3058 44.2939C53.1375 44.1903 52.9502 44.121 52.755 44.09V44.09Z" fill="#101130"/>
</g>
<defs>
<filter id="filter0_d_1_15" x="0" y="0" width="78" height="78" filterUnits="userSpaceOnUse" color-interpolation-filters="sRGB">
<feFlood flood-opacity="0" result="BackgroundImageFix"/>
<feColorMatrix in="SourceAlpha" type="matrix" values="0 0 0 0 0 0 0 0 0 0 0 0 0 0 0 0 0 0 127 0" result="hardAlpha"/>
<feOffset dy="4"/>
<feGaussianBlur stdDeviation="2"/>
<feComposite in2="hardAlpha" operator="out"/>
<feColorMatrix type="matrix" values="0 0 0 0 0 0 0 0 0 0 0 0 0 0 0 0 0 0 0.25 0"/>
<feBlend mode="normal" in2="BackgroundImageFix" result="effect1_dropShadow_1_15"/>
<feBlend mode="normal" in="SourceGraphic" in2="effect1_dropShadow_1_15" result="shape"/>
</filter>
</defs>
</svg>
